<svg xmlns="http://www.w3.org/2000/svg" xmlns:xlink="http://www.w3.org/1999/xlink" width="500" zoomAndPan="magnify" viewBox="0 0 375 374.999991" height="500" preserveAspectRatio="xMidYMid meet" version="1.0"><defs><clipPath id="28e42df752"><path d="M 196 183 L 239.585938 183 L 239.585938 261 L 196 261 Z M 196 183 " clip-rule="nonzero"/></clipPath></defs><path fill="#ffffff" d="M 219 135.742188 C 212.578125 133.953125 208.804688 127.269531 210.59375 120.84375 C 211.492188 117.625 209.609375 114.292969 206.390625 113.398438 C 203.171875 112.5 199.839844 114.382812 198.941406 117.601562 L 179.695312 186.722656 C 176.804688 183.75 173.121094 181.476562 168.847656 180.289062 C 155.953125 176.695312 142.539062 184.265625 138.949219 197.160156 C 135.359375 210.054688 142.929688 223.464844 155.820312 227.054688 C 168.714844 230.644531 182.125 223.074219 185.714844 210.179688 L 204.976562 141.015625 C 207.851562 143.957031 211.507812 146.214844 215.753906 147.394531 C 222.179688 149.179688 225.953125 155.867188 224.160156 162.289062 C 223.265625 165.507812 225.148438 168.84375 228.363281 169.738281 C 231.582031 170.636719 234.917969 168.753906 235.8125 165.535156 C 239.398438 152.6875 231.851562 139.320312 219 135.742188 Z M 219 135.742188 " fill-opacity="1" fill-rule="nonzero"/><g clip-path="url(#28e42df752)"><path fill="#ffffff" d="M 220.890625 191.863281 C 216.882812 192.878906 212.792969 190.445312 211.777344 186.433594 C 211.265625 184.429688 209.226562 183.210938 207.21875 183.722656 C 205.210938 184.230469 203.996094 186.273438 204.507812 188.277344 L 215.445312 231.40625 C 212.972656 230.699219 210.292969 230.609375 207.625 231.285156 C 199.578125 233.328125 194.691406 241.53125 196.734375 249.578125 C 198.773438 257.621094 206.980469 262.503906 215.023438 260.464844 C 223.066406 258.421875 227.953125 250.21875 225.914062 242.175781 L 214.96875 199.015625 C 217.425781 199.714844 220.085938 199.800781 222.734375 199.128906 C 226.742188 198.113281 230.832031 200.546875 231.847656 204.558594 C 232.355469 206.5625 234.398438 207.78125 236.40625 207.269531 C 238.410156 206.761719 239.628906 204.722656 239.117188 202.714844 C 237.085938 194.695312 228.910156 189.828125 220.890625 191.863281 Z M 220.890625 191.863281 " fill-opacity="1" fill-rule="nonzero"/></g></svg>