<svg xmlns="http://www.w3.org/2000/svg" xmlns:xlink="http://www.w3.org/1999/xlink" width="500" zoomAndPan="magnify" viewBox="0 0 375 374.999991" height="500" preserveAspectRatio="xMidYMid meet" version="1.0"><defs><clipPath id="afa774fe47"><path d="M 140 131 L 236.308594 131 L 236.308594 270.765625 L 140 270.765625 Z M 140 131 " clip-rule="nonzero"/></clipPath></defs><g clip-path="url(#afa774fe47)"><path fill="#ffffff" d="M 236.132812 205.699219 L 236.132812 194.042969 C 236.132812 189.261719 232.222656 185.347656 227.441406 185.347656 C 222.660156 185.347656 218.746094 189.261719 218.746094 194.042969 L 218.746094 186.484375 C 218.746094 181.703125 214.835938 177.789062 210.050781 177.789062 C 205.273438 177.789062 201.359375 181.703125 201.359375 186.484375 L 201.359375 178.921875 C 201.359375 174.140625 197.445312 170.230469 192.664062 170.230469 C 187.882812 170.230469 183.972656 174.140625 183.972656 178.921875 L 183.972656 140.371094 C 183.972656 135.589844 180.058594 131.675781 175.277344 131.675781 C 170.496094 131.675781 166.582031 135.589844 166.582031 140.371094 L 166.582031 226.4375 L 158.511719 212.457031 C 155.808594 207.777344 149.769531 206.160156 145.089844 208.863281 C 140.40625 211.5625 138.789062 217.605469 141.492188 222.285156 L 158.148438 251.117188 C 164.910156 262.554688 178.90625 270.457031 194.984375 270.457031 C 217.617188 270.457031 236.132812 254.808594 236.132812 235.683594 Z M 236.132812 205.699219 " fill-opacity="1" fill-rule="nonzero"/></g><path fill="#ffffff" d="M 159.347656 134.574219 C 162.546875 125.789062 172.292969 121.242188 181.078125 124.441406 C 189.863281 127.636719 194.40625 137.386719 191.210938 146.167969 C 190.242188 148.828125 188.671875 151.09375 186.710938 152.878906 L 186.710938 156.613281 C 189.921875 154.359375 192.503906 151.132812 193.945312 147.164062 C 197.699219 136.855469 192.382812 125.457031 182.074219 121.703125 C 171.765625 117.949219 160.363281 123.265625 156.613281 133.578125 C 153.472656 142.199219 156.679688 151.582031 163.84375 156.617188 L 163.84375 152.882812 C 158.9375 148.386719 156.933594 141.207031 159.347656 134.574219 Z M 159.347656 134.574219 " fill-opacity="1" fill-rule="nonzero"/><path fill="#ffffff" d="M 149.277344 130.90625 C 154.496094 116.566406 170.40625 109.148438 184.742188 114.367188 C 199.082031 119.585938 206.5 135.496094 201.28125 149.835938 C 198.636719 157.101562 193.246094 162.582031 186.707031 165.554688 L 186.707031 170.027344 C 194.976562 166.839844 201.875 160.226562 205.148438 151.242188 C 211.152344 134.746094 202.644531 116.507812 186.148438 110.503906 C 169.65625 104.5 151.414062 113.003906 145.410156 129.5 C 139.476562 145.804688 147.71875 163.8125 163.84375 170.023438 L 163.84375 165.5625 C 150.8125 159.65625 144.300781 144.570312 149.277344 130.90625 Z M 149.277344 130.90625 " fill-opacity="1" fill-rule="nonzero"/></svg>