<svg xmlns="http://www.w3.org/2000/svg" xmlns:xlink="http://www.w3.org/1999/xlink" width="500" zoomAndPan="magnify" viewBox="0 0 375 374.999991" height="500" preserveAspectRatio="xMidYMid meet" version="1.0"><defs><clipPath id="ccfad22714"><path d="M 128.289062 107.089844 L 246.789062 107.089844 L 246.789062 267.589844 L 128.289062 267.589844 Z M 128.289062 107.089844 " clip-rule="nonzero"/></clipPath></defs><g clip-path="url(#ccfad22714)"><path fill="#ffffff" d="M 187.496094 208.644531 C 201.496094 208.644531 212.789062 197.265625 212.789062 183.269531 L 212.871094 132.515625 C 212.871094 118.476562 201.539062 107.140625 187.496094 107.140625 C 173.5 107.140625 162.121094 118.476562 162.121094 132.515625 L 162.121094 183.269531 C 162.121094 197.265625 173.5 208.644531 187.496094 208.644531 Z M 232.328125 183.269531 C 232.328125 208.644531 210.886719 226.40625 187.496094 226.40625 C 164.152344 226.40625 142.667969 208.644531 142.667969 183.269531 L 128.289062 183.269531 C 128.289062 212.152344 151.296875 236.007812 179.039062 240.109375 L 179.039062 267.851562 L 195.957031 267.851562 L 195.957031 240.109375 C 223.699219 236.007812 246.707031 212.152344 246.707031 183.269531 Z M 232.328125 183.269531 " fill-opacity="1" fill-rule="nonzero"/></g></svg>