<svg xmlns="http://www.w3.org/2000/svg" xmlns:xlink="http://www.w3.org/1999/xlink" width="500" zoomAndPan="magnify" viewBox="0 0 375 374.999991" height="500" preserveAspectRatio="xMidYMid meet" version="1.0"><defs><g/><clipPath id="c67e1fffd7"><path d="M 24.832031 37.5 L 350.332031 37.5 L 350.332031 363 L 24.832031 363 Z M 24.832031 37.5 " clip-rule="nonzero"/></clipPath></defs><g fill="#000000" fill-opacity="1"><g transform="translate(107.999997, 294.749981)"><g><path d="M 73.796875 -1.5 L 1.5 -146.40625 C 0.894531 -148 0.941406 -149.445312 1.640625 -150.75 C 2.347656 -152.050781 3.601562 -152.703125 5.40625 -152.703125 L 29.40625 -152.703125 C 31.601562 -152.703125 33.203125 -152.25 34.203125 -151.34375 C 35.203125 -150.445312 36.300781 -148.800781 37.5 -146.40625 L 97.796875 -26.703125 L 85.203125 -1.5 C 84.003906 0.5 83.101562 2 82.5 3 C 81.894531 4 81.09375 4.5 80.09375 4.5 L 79.203125 4.5 C 78.003906 4.5 77.101562 4 76.5 3 C 75.894531 2 74.992188 0.5 73.796875 -1.5 Z M 100.796875 -32.703125 L 83.09375 -68.09375 L 121.203125 -146.40625 C 122.597656 -148.800781 123.84375 -150.445312 124.9375 -151.34375 C 126.039062 -152.25 127.59375 -152.703125 129.59375 -152.703125 L 153.296875 -152.703125 C 155.492188 -152.703125 156.894531 -151.953125 157.5 -150.453125 C 158.101562 -148.953125 158.003906 -147.601562 157.203125 -146.40625 Z M 100.796875 -32.703125 "/></g></g></g><g clip-path="url(#c67e1fffd7)"><path fill="#000000" d="M 187.582031 37.5 C 97.664062 37.5 24.832031 110.332031 24.832031 200.25 C 24.832031 290.167969 97.664062 363 187.582031 363 C 277.503906 363 350.332031 290.167969 350.332031 200.25 C 350.332031 110.332031 277.503906 37.5 187.582031 37.5 Z M 187.582031 330.449219 C 115.808594 330.449219 57.382812 272.023438 57.382812 200.25 C 57.382812 128.476562 115.808594 70.050781 187.582031 70.050781 C 259.355469 70.050781 317.78125 128.476562 317.78125 200.25 C 317.78125 272.023438 259.355469 330.449219 187.582031 330.449219 Z M 187.582031 330.449219 " fill-opacity="1" fill-rule="nonzero"/></g></svg>