<svg xmlns="http://www.w3.org/2000/svg" xmlns:xlink="http://www.w3.org/1999/xlink" width="500" zoomAndPan="magnify" viewBox="0 0 375 149.999998" height="200" preserveAspectRatio="xMidYMid meet" version="1.0"><defs><clipPath id="dab6d9902f"><path d="M 3.671875 26.097656 L 99.40625 26.097656 L 99.40625 121.832031 L 3.671875 121.832031 Z M 3.671875 26.097656 " clip-rule="nonzero"/></clipPath></defs><path fill="#000000" d="M 153.839844 101.628906 L 119.921875 30.042969 C 119.6875 29.574219 119.6875 29.183594 119.84375 28.871094 C 120 28.558594 120.3125 28.402344 120.785156 28.402344 L 126.878906 28.402344 C 127.425781 28.402344 127.894531 28.480469 128.128906 28.714844 C 128.441406 28.949219 128.753906 29.339844 128.988281 30.042969 L 159.625 96.082031 L 156.886719 101.628906 C 156.652344 102.097656 156.417969 102.488281 156.261719 102.722656 C 156.105469 102.957031 155.871094 103.113281 155.636719 103.113281 L 155.089844 103.113281 C 154.855469 103.113281 154.621094 102.957031 154.464844 102.722656 C 154.464844 102.488281 154.230469 102.175781 153.839844 101.628906 Z M 190.882812 30.042969 L 160.875 93.738281 L 156.652344 84.671875 L 181.664062 30.042969 C 181.976562 29.339844 182.289062 28.871094 182.601562 28.714844 C 182.914062 28.480469 183.304688 28.402344 183.773438 28.402344 L 189.789062 28.402344 C 190.335938 28.402344 190.726562 28.558594 190.882812 28.949219 C 191.117188 29.261719 191.039062 29.652344 190.882812 30.042969 Z M 190.882812 30.042969 " fill-opacity="1" fill-rule="nonzero"/><path fill="#000000" d="M 215.03125 97.878906 L 193.304688 49.191406 C 192.835938 48.097656 193.070312 47.550781 194.164062 47.550781 L 199.554688 47.550781 C 200.101562 47.550781 200.492188 47.628906 200.808594 47.863281 C 201.121094 48.097656 201.355469 48.488281 201.667969 49.191406 L 223.46875 98.035156 L 213.546875 120.152344 C 213.3125 120.855469 213 121.324219 212.683594 121.480469 C 212.371094 121.714844 211.902344 121.792969 211.355469 121.792969 L 206.042969 121.792969 C 204.949219 121.792969 204.636719 121.246094 205.183594 120.152344 Z M 224.40625 95.457031 L 220.34375 86.46875 L 236.675781 49.191406 C 236.988281 48.488281 237.382812 48.019531 237.695312 47.863281 C 238.007812 47.628906 238.398438 47.550781 238.867188 47.550781 L 244.179688 47.550781 C 245.273438 47.550781 245.585938 48.097656 245.039062 49.191406 Z M 224.40625 95.457031 " fill-opacity="1" fill-rule="nonzero"/><path fill="#000000" d="M 307.011719 78.652344 C 307.011719 83.65625 305.996094 88.265625 304.042969 92.488281 C 302.085938 96.707031 299.273438 100.066406 295.679688 102.566406 C 292.085938 105.070312 287.863281 106.398438 283.019531 106.398438 C 279.269531 106.398438 275.90625 105.617188 272.9375 104.054688 C 269.96875 102.488281 267.546875 100.535156 265.746094 98.269531 L 265.746094 88.34375 C 267.625 92.410156 270.046875 95.300781 273.015625 96.941406 C 275.984375 98.582031 278.878906 99.363281 281.535156 99.363281 C 285.128906 99.363281 288.253906 98.425781 290.992188 96.628906 C 293.648438 94.753906 295.757812 92.253906 297.164062 89.125 C 298.648438 86 299.351562 82.484375 299.351562 78.652344 C 299.351562 75.058594 298.648438 71.699219 297.164062 68.574219 C 295.679688 65.445312 293.648438 62.945312 290.992188 60.992188 C 288.332031 59.039062 285.207031 58.023438 281.535156 58.023438 C 278.171875 58.023438 275.125 58.960938 272.390625 60.757812 C 269.65625 62.554688 267.390625 65.367188 265.667969 69.042969 L 265.667969 59.664062 C 267.390625 57.164062 269.734375 55.054688 272.78125 53.410156 C 275.75 51.769531 279.191406 50.910156 283.019531 50.910156 C 287.863281 50.910156 292.085938 52.160156 295.679688 54.660156 C 299.273438 57.164062 302.085938 60.523438 304.042969 64.664062 C 306.074219 69.042969 307.011719 73.652344 307.011719 78.652344 Z M 255.902344 103.582031 L 255.902344 30.042969 C 255.902344 28.949219 256.449219 28.402344 257.464844 28.402344 L 262.152344 28.402344 C 263.167969 28.402344 263.714844 28.949219 263.714844 30.042969 L 263.714844 100.691406 L 262.542969 103.898438 C 261.839844 104.835938 260.980469 105.226562 259.964844 105.226562 L 257.464844 105.226562 C 256.449219 105.226562 255.902344 104.679688 255.902344 103.582031 Z M 255.902344 103.582031 " fill-opacity="1" fill-rule="nonzero"/><path fill="#000000" d="M 363.824219 89.75 L 365.777344 92.175781 C 366.480469 93.113281 366.480469 93.816406 365.777344 94.441406 C 363.433594 96.785156 360.308594 98.582031 356.398438 99.832031 C 352.492188 101.082031 348.664062 101.707031 344.832031 101.707031 C 339.597656 101.707031 334.910156 100.457031 330.6875 97.957031 C 326.46875 95.457031 323.1875 92.097656 320.683594 87.953125 C 318.183594 83.8125 317.011719 79.121094 317.011719 74.042969 C 317.011719 69.199219 318.183594 64.742188 320.449219 60.601562 C 322.71875 56.539062 325.84375 53.175781 329.75 50.519531 C 333.660156 47.941406 338.113281 46.535156 342.957031 46.300781 L 342.957031 52.863281 C 339.519531 53.175781 336.472656 54.269531 333.738281 56.148438 C 331 58.023438 328.890625 60.523438 327.328125 63.492188 C 325.765625 66.460938 324.984375 69.746094 324.984375 73.261719 L 324.984375 74.746094 C 324.984375 78.417969 325.921875 81.78125 327.71875 84.828125 C 329.515625 87.875 331.9375 90.296875 334.988281 92.097656 C 338.035156 93.894531 341.394531 94.832031 345.144531 94.832031 C 347.648438 94.832031 350.382812 94.441406 353.351562 93.582031 C 356.320312 92.722656 359.058594 91.390625 361.558594 89.59375 C 362.105469 89.28125 362.496094 89.046875 362.808594 89.046875 C 363.199219 89.125 363.589844 89.28125 363.824219 89.75 Z M 370.078125 75.136719 C 370.078125 75.761719 370 76.230469 369.839844 76.464844 C 369.683594 76.699219 369.214844 76.855469 368.511719 76.855469 L 327.25 76.855469 C 326.78125 75.136719 326.78125 73.339844 327.25 71.464844 L 362.027344 71.464844 C 361.949219 68.652344 361.246094 65.835938 359.917969 63.101562 C 358.589844 60.367188 356.632812 58.023438 354.132812 56.148438 C 351.632812 54.269531 348.585938 53.253906 345.066406 53.019531 L 345.066406 46.457031 C 350.382812 46.613281 354.835938 48.019531 358.511719 50.675781 C 362.261719 53.332031 365.074219 56.851562 367.027344 61.148438 C 369.058594 65.367188 370.078125 70.058594 370.078125 75.136719 Z M 370.078125 75.136719 " fill-opacity="1" fill-rule="nonzero"/><path fill="#000000" d="M 49.859375 101.316406 L 28.601562 58.648438 C 28.445312 58.179688 28.445312 57.789062 28.679688 57.398438 C 28.914062 57.007812 29.226562 56.851562 29.773438 56.851562 L 36.808594 56.851562 C 37.433594 56.851562 37.902344 57.007812 38.214844 57.242188 C 38.527344 57.476562 38.839844 58.023438 39.152344 58.726562 L 56.894531 93.972656 L 53.21875 101.394531 C 52.828125 102.019531 52.59375 102.410156 52.4375 102.722656 C 52.28125 103.035156 52.046875 103.191406 51.734375 103.191406 L 51.5 103.191406 C 51.109375 103.191406 50.875 103.035156 50.71875 102.722656 C 50.484375 102.332031 50.171875 101.941406 49.859375 101.316406 Z M 57.753906 92.175781 L 52.515625 81.78125 L 63.691406 58.726562 C 64.082031 58.023438 64.472656 57.554688 64.785156 57.242188 C 65.097656 57.007812 65.566406 56.851562 66.191406 56.851562 L 73.148438 56.851562 C 73.773438 56.851562 74.242188 57.085938 74.398438 57.476562 C 74.554688 57.945312 74.554688 58.335938 74.320312 58.648438 Z M 57.753906 92.175781 " fill-opacity="1" fill-rule="nonzero"/><g clip-path="url(#dab6d9902f)"><path fill="#000000" d="M 51.578125 26.097656 C 25.085938 26.097656 3.671875 47.511719 3.671875 74.003906 C 3.671875 100.496094 25.085938 121.910156 51.578125 121.910156 C 78.070312 121.910156 99.484375 100.496094 99.484375 74.003906 C 99.484375 47.511719 77.992188 26.097656 51.578125 26.097656 Z M 51.578125 112.296875 C 30.476562 112.296875 13.285156 95.105469 13.285156 74.003906 C 13.285156 52.902344 30.476562 35.710938 51.578125 35.710938 C 72.679688 35.710938 89.871094 52.902344 89.871094 74.003906 C 89.871094 95.105469 72.679688 112.296875 51.578125 112.296875 Z M 51.578125 112.296875 " fill-opacity="1" fill-rule="nonzero"/></g></svg>