<svg xmlns="http://www.w3.org/2000/svg" xmlns:xlink="http://www.w3.org/1999/xlink" width="500" zoomAndPan="magnify" viewBox="0 0 375 149.999998" height="200" preserveAspectRatio="xMidYMid meet" version="1.0"><defs><clipPath id="c72cf9ebd6"><path d="M 3.675781 27.070312 L 99.496094 27.070312 L 99.496094 122.890625 L 3.675781 122.890625 Z M 3.675781 27.070312 " clip-rule="nonzero"/></clipPath></defs><rect x="-37.5" width="450" fill="#ffffff" y="-15" height="179.999997" fill-opacity="1"/><rect x="-37.5" width="450" fill="#000000" y="-15" height="179.999997" fill-opacity="1"/><path fill="#ffffff" d="M 153.980469 102.671875 L 120.03125 31.023438 C 119.796875 30.550781 119.796875 30.160156 119.953125 29.847656 C 120.109375 29.535156 120.421875 29.378906 120.890625 29.378906 L 126.992188 29.378906 C 127.539062 29.378906 128.011719 29.457031 128.246094 29.691406 C 128.558594 29.925781 128.871094 30.316406 129.105469 31.023438 L 159.765625 97.117188 L 157.03125 102.671875 C 156.796875 103.140625 156.558594 103.53125 156.402344 103.765625 C 156.246094 104 156.011719 104.15625 155.777344 104.15625 L 155.230469 104.15625 C 154.996094 104.15625 154.761719 104 154.605469 103.765625 C 154.605469 103.53125 154.371094 103.21875 153.980469 102.671875 Z M 191.054688 31.023438 L 161.019531 94.769531 L 156.796875 85.699219 L 181.824219 31.023438 C 182.136719 30.316406 182.453125 29.847656 182.765625 29.691406 C 183.078125 29.457031 183.46875 29.378906 183.9375 29.378906 L 189.960938 29.378906 C 190.507812 29.378906 190.898438 29.535156 191.054688 29.925781 C 191.289062 30.238281 191.210938 30.628906 191.054688 31.023438 Z M 191.054688 31.023438 " fill-opacity="1" fill-rule="nonzero"/><path fill="#ffffff" d="M 215.222656 98.917969 L 193.476562 50.1875 C 193.007812 49.089844 193.242188 48.542969 194.339844 48.542969 L 199.734375 48.542969 C 200.285156 48.542969 200.675781 48.621094 200.988281 48.855469 C 201.300781 49.089844 201.535156 49.480469 201.847656 50.1875 L 223.671875 99.074219 L 213.738281 121.210938 C 213.503906 121.914062 213.191406 122.382812 212.875 122.539062 C 212.5625 122.773438 212.09375 122.851562 211.546875 122.851562 L 206.226562 122.851562 C 205.132812 122.851562 204.820312 122.304688 205.367188 121.210938 Z M 224.609375 96.492188 L 220.542969 87.496094 L 236.890625 50.1875 C 237.203125 49.480469 237.59375 49.011719 237.90625 48.855469 C 238.21875 48.621094 238.613281 48.542969 239.082031 48.542969 L 244.398438 48.542969 C 245.496094 48.542969 245.808594 49.089844 245.261719 50.1875 Z M 224.609375 96.492188 " fill-opacity="1" fill-rule="nonzero"/><path fill="#ffffff" d="M 307.289062 79.675781 C 307.289062 84.679688 306.269531 89.296875 304.316406 93.519531 C 302.359375 97.742188 299.542969 101.105469 295.945312 103.609375 C 292.347656 106.113281 288.125 107.441406 283.273438 107.441406 C 279.519531 107.441406 276.15625 106.660156 273.183594 105.097656 C 270.210938 103.53125 267.785156 101.578125 265.988281 99.308594 L 265.988281 89.375 C 267.863281 93.441406 270.289062 96.335938 273.261719 97.976562 C 276.234375 99.621094 279.128906 100.402344 281.789062 100.402344 C 285.386719 100.402344 288.515625 99.464844 291.253906 97.664062 C 293.910156 95.789062 296.023438 93.285156 297.429688 90.15625 C 298.917969 87.027344 299.621094 83.507812 299.621094 79.675781 C 299.621094 76.078125 298.917969 72.714844 297.429688 69.585938 C 295.945312 66.457031 293.910156 63.953125 291.253906 61.996094 C 288.59375 60.042969 285.464844 59.023438 281.789062 59.023438 C 278.425781 59.023438 275.375 59.964844 272.636719 61.761719 C 269.898438 63.5625 267.628906 66.378906 265.910156 70.054688 L 265.910156 60.667969 C 267.628906 58.164062 269.976562 56.050781 273.027344 54.410156 C 276 52.765625 279.441406 51.90625 283.273438 51.90625 C 288.125 51.90625 292.347656 53.15625 295.945312 55.660156 C 299.542969 58.164062 302.359375 61.527344 304.316406 65.671875 C 306.347656 70.054688 307.289062 74.667969 307.289062 79.675781 Z M 256.132812 104.628906 L 256.132812 31.023438 C 256.132812 29.925781 256.679688 29.378906 257.695312 29.378906 L 262.390625 29.378906 C 263.40625 29.378906 263.953125 29.925781 263.953125 31.023438 L 263.953125 101.734375 L 262.78125 104.941406 C 262.074219 105.878906 261.214844 106.269531 260.199219 106.269531 L 257.695312 106.269531 C 256.679688 106.269531 256.132812 105.722656 256.132812 104.628906 Z M 256.132812 104.628906 " fill-opacity="1" fill-rule="nonzero"/><path fill="#ffffff" d="M 364.152344 90.78125 L 366.105469 93.207031 C 366.8125 94.144531 366.8125 94.851562 366.105469 95.476562 C 363.761719 97.820312 360.632812 99.621094 356.71875 100.871094 C 352.808594 102.125 348.976562 102.75 345.144531 102.75 C 339.902344 102.75 335.210938 101.5 330.984375 98.996094 C 326.761719 96.492188 323.476562 93.128906 320.972656 88.984375 C 318.472656 84.835938 317.296875 80.144531 317.296875 75.058594 C 317.296875 70.210938 318.472656 65.75 320.738281 61.605469 C 323.007812 57.539062 326.136719 54.175781 330.046875 51.515625 C 333.957031 48.933594 338.417969 47.527344 343.265625 47.292969 L 343.265625 53.863281 C 339.824219 54.175781 336.773438 55.269531 334.035156 57.148438 C 331.300781 59.023438 329.1875 61.527344 327.621094 64.5 C 326.058594 67.472656 325.277344 70.757812 325.277344 74.277344 L 325.277344 75.765625 C 325.277344 79.441406 326.214844 82.804688 328.015625 85.855469 C 329.8125 88.90625 332.238281 91.328125 335.289062 93.128906 C 338.339844 94.929688 341.703125 95.867188 345.457031 95.867188 C 347.960938 95.867188 350.699219 95.476562 353.671875 94.613281 C 356.640625 93.753906 359.378906 92.425781 361.882812 90.625 C 362.429688 90.3125 362.820312 90.078125 363.132812 90.078125 C 363.527344 90.15625 363.917969 90.3125 364.152344 90.78125 Z M 370.410156 76.15625 C 370.410156 76.78125 370.332031 77.25 370.175781 77.484375 C 370.019531 77.71875 369.546875 77.875 368.84375 77.875 L 327.542969 77.875 C 327.074219 76.15625 327.074219 74.355469 327.542969 72.480469 L 362.351562 72.480469 C 362.273438 69.664062 361.570312 66.847656 360.242188 64.109375 C 358.910156 61.371094 356.957031 59.023438 354.453125 57.148438 C 351.949219 55.269531 348.898438 54.253906 345.378906 54.019531 L 345.378906 47.449219 C 350.699219 47.605469 355.15625 49.011719 358.832031 51.671875 C 362.585938 54.332031 365.402344 57.851562 367.359375 62.152344 C 369.390625 66.378906 370.410156 71.070312 370.410156 76.15625 Z M 370.410156 76.15625 " fill-opacity="1" fill-rule="nonzero"/><path fill="#ffffff" d="M 49.90625 102.359375 L 28.628906 59.652344 C 28.472656 59.179688 28.472656 58.789062 28.707031 58.398438 C 28.941406 58.007812 29.253906 57.851562 29.800781 57.851562 L 36.839844 57.851562 C 37.46875 57.851562 37.9375 58.007812 38.25 58.242188 C 38.5625 58.476562 38.875 59.023438 39.1875 59.730469 L 56.945312 95.007812 L 53.269531 102.4375 C 52.875 103.0625 52.640625 103.453125 52.484375 103.765625 C 52.328125 104.078125 52.09375 104.234375 51.78125 104.234375 L 51.546875 104.234375 C 51.15625 104.234375 50.921875 104.078125 50.765625 103.765625 C 50.53125 103.375 50.21875 102.984375 49.90625 102.359375 Z M 57.804688 93.207031 L 52.5625 82.804688 L 63.75 59.730469 C 64.140625 59.023438 64.53125 58.554688 64.84375 58.242188 C 65.15625 58.007812 65.625 57.851562 66.253906 57.851562 L 73.214844 57.851562 C 73.839844 57.851562 74.308594 58.085938 74.464844 58.476562 C 74.621094 58.945312 74.621094 59.335938 74.386719 59.652344 Z M 57.804688 93.207031 " fill-opacity="1" fill-rule="nonzero"/><g clip-path="url(#c72cf9ebd6)"><path fill="#ffffff" d="M 51.625 27.070312 C 25.109375 27.070312 3.675781 48.503906 3.675781 75.019531 C 3.675781 101.539062 25.109375 122.96875 51.625 122.96875 C 78.140625 122.96875 99.574219 101.539062 99.574219 75.019531 C 99.574219 48.503906 78.0625 27.070312 51.625 27.070312 Z M 51.625 113.347656 C 30.507812 113.347656 13.296875 96.140625 13.296875 75.019531 C 13.296875 53.902344 30.507812 36.691406 51.625 36.691406 C 72.746094 36.691406 89.953125 53.902344 89.953125 75.019531 C 89.953125 96.140625 72.746094 113.347656 51.625 113.347656 Z M 51.625 113.347656 " fill-opacity="1" fill-rule="nonzero"/></g></svg>