<?xml version="1.0" encoding="utf-8"?>
<!-- Generator: Adobe Illustrator 28.3.0, SVG Export Plug-In . SVG Version: 6.00 Build 0)  -->
<svg version="1.1" id="Layer_1" xmlns="http://www.w3.org/2000/svg" xmlns:xlink="http://www.w3.org/1999/xlink" x="0px" y="0px"
	 viewBox="0 0 500 200" style="enable-background:new 0 0 500 200;" xml:space="preserve">
<style type="text/css">
	.st0{clip-path:url(#SVGID_00000076584275592858439940000009188471496598312349_);}
</style>
<path d="M205.1,135.5l-45.2-95.4c-0.3-0.6-0.3-1.1-0.1-1.6s0.6-0.6,1.3-0.6h8.1c0.7,0,1.4,0.1,1.7,0.4c0.4,0.3,0.8,0.8,1.1,1.8
	l40.8,88.1l-3.7,7.4c-0.3,0.6-0.6,1.1-0.8,1.5c-0.2,0.3-0.5,0.5-0.8,0.5h-0.7c-0.3,0-0.6-0.2-0.8-0.5
	C206,136.7,205.6,136.2,205.1,135.5z M254.5,40.1l-40,84.9l-5.6-12.1l33.3-72.8c0.4-0.9,0.8-1.6,1.2-1.8c0.4-0.3,0.9-0.4,1.6-0.4h8
	c0.7,0,1.2,0.2,1.5,0.7C254.8,39,254.7,39.5,254.5,40.1z"/>
<path d="M286.7,130.5l-29-64.9c-0.6-1.5-0.3-2.2,1.1-2.2h7.2c0.7,0,1.2,0.1,1.7,0.4c0.4,0.3,0.7,0.8,1.1,1.8l29.1,65.1l-13.2,29.5
	c-0.3,0.9-0.7,1.6-1.2,1.8c-0.4,0.3-1,0.4-1.8,0.4h-7.1c-1.5,0-1.9-0.7-1.1-2.2L286.7,130.5z M299.2,127.3l-5.4-12l21.8-49.7
	c0.4-0.9,0.9-1.6,1.4-1.8c0.4-0.3,0.9-0.4,1.6-0.4h7.1c1.5,0,1.9,0.7,1.1,2.2L299.2,127.3z"/>
<path d="M409.3,104.9c0,6.7-1.4,12.8-4,18.4c-2.6,5.6-6.4,10.1-11.2,13.4c-4.8,3.3-10.4,5.1-16.9,5.1c-5,0-9.5-1-13.4-3.1
	c-4-2.1-7.2-4.7-9.6-7.7v-13.2c2.5,5.4,5.7,9.3,9.7,11.5c4,2.2,7.8,3.2,11.4,3.2c4.8,0,9-1.2,12.6-3.6c3.5-2.5,6.4-5.8,8.2-10
	c2-4.2,2.9-8.9,2.9-14c0-4.8-0.9-9.3-2.9-13.4c-2-4.2-4.7-7.5-8.2-10.1c-3.5-2.6-7.7-4-12.6-4c-4.5,0-8.5,1.2-12.2,3.6
	c-3.6,2.4-6.7,6.1-9,11V79.6c2.3-3.3,5.4-6.1,9.5-8.3c4-2.2,8.5-3.3,13.7-3.3c6.5,0,12.1,1.7,16.9,5c4.8,3.3,8.5,7.8,11.2,13.3
	C408.1,92.1,409.3,98.2,409.3,104.9z M341.2,138.1V40.1c0-1.5,0.7-2.2,2.1-2.2h6.2c1.4,0,2.1,0.7,2.1,2.2v94.2l-1.6,4.3
	c-0.9,1.2-2.1,1.8-3.4,1.8h-3.3C341.9,140.3,341.2,139.6,341.2,138.1z"/>
<path d="M485.1,119.7l2.6,3.2c0.9,1.2,0.9,2.2,0,3c-3.1,3.1-7.3,5.5-12.5,7.2c-5.2,1.7-10.3,2.5-15.4,2.5c-7,0-13.2-1.7-18.9-5
	c-5.6-3.3-10-7.8-13.3-13.3c-3.3-5.5-4.9-11.8-4.9-18.5c0-6.5,1.6-12.4,4.6-17.9c3-5.4,7.2-9.9,12.4-13.4c5.2-3.4,11.2-5.3,17.6-5.6
	v8.8c-4.6,0.4-8.6,1.9-12.3,4.4c-3.7,2.5-6.5,5.8-8.5,9.8c-2.1,4-3.1,8.3-3.1,13v2c0,4.9,1.2,9.4,3.6,13.4s5.6,7.3,9.7,9.7
	c4.1,2.4,8.5,3.6,13.5,3.6c3.3,0,7-0.5,10.9-1.7c4-1.1,7.6-2.9,10.9-5.3c0.7-0.4,1.2-0.7,1.7-0.7C484.3,118.8,484.8,119,485.1,119.7
	z M493.4,100.2c0,0.8-0.1,1.5-0.3,1.8c-0.2,0.3-0.8,0.5-1.8,0.5h-55c-0.6-2.3-0.6-4.7,0-7.2h46.4c-0.1-3.8-1-7.5-2.8-11.2
	c-1.8-3.6-4.4-6.8-7.7-9.3c-3.3-2.5-7.4-3.9-12.1-4.2v-8.8c7.1,0.2,13,2.1,17.9,5.6c5,3.5,8.8,8.2,11.4,14
	C492.1,87.2,493.4,93.4,493.4,100.2z"/>
<path d="M66.5,135.1L38.1,78.2c-0.2-0.6-0.2-1.1,0.1-1.7c0.3-0.5,0.7-0.7,1.5-0.7h9.4c0.8,0,1.5,0.2,1.9,0.5c0.4,0.3,0.8,1,1.2,2
	l23.7,47l-4.9,9.9c-0.5,0.8-0.8,1.4-1,1.8c-0.2,0.4-0.5,0.6-0.9,0.6h-0.3c-0.5,0-0.8-0.2-1-0.6C67.3,136.4,66.9,135.9,66.5,135.1z
	 M77,122.9L70,109l14.9-30.7c0.5-0.9,1-1.6,1.5-2c0.4-0.3,1-0.5,1.9-0.5h9.3c0.8,0,1.5,0.3,1.7,0.8c0.2,0.6,0.2,1.1-0.1,1.6
	L77,122.9z"/>
<g>
	<defs>
		<rect id="SVGID_1_" x="4.9" y="34.8" width="127.6" height="127.6"/>
	</defs>
	<clipPath id="SVGID_00000166653944550038794320000001478331671287592127_">
		<use xlink:href="#SVGID_1_"  style="overflow:visible;"/>
	</clipPath>
	<g style="clip-path:url(#SVGID_00000166653944550038794320000001478331671287592127_);">
		<path d="M68.8,34.8c-35.3,0-63.9,28.6-63.9,63.9s28.6,63.9,63.9,63.9s63.9-28.6,63.9-63.9S104,34.8,68.8,34.8z M68.8,149.7
			c-28.1,0-51.1-22.9-51.1-51.1s22.9-51.1,51.1-51.1s51.1,22.9,51.1,51.1S96.9,149.7,68.8,149.7z"/>
	</g>
</g>
</svg>
